<?xml version="1.0" encoding="UTF-8"?>
<svg width="64" height="64" viewBox="0 0 64 64" fill="none" xmlns="http://www.w3.org/2000/svg">
  <title>FPND</title>
  <rect x="6" y="6" width="52" height="52" rx="14" fill="#FF9100"/>
  <circle cx="46" cy="18" r="6" fill="#FFC400" opacity="0.95"/>
  <!-- Simple bell mark (original) -->
  <path
    d="M32 50c3.2 0 5.8-2.3 6.2-5.3H25.8C26.2 47.7 28.8 50 32 50Zm14-10.3c-3.1-2.6-5-5.2-5-13.2 0-7.1-4.4-12.2-10.5-13.8V10a2.5 2.5 0 1 0-5 0v2.7C19.4 14.3 15 19.4 15 26.5c0 8-1.9 10.6-5 13.2-.6.5-1 1.3-1 2.1 0 1.5 1.2 2.7 2.7 2.7h40.6c1.5 0 2.7-1.2 2.7-2.7 0-.8-.4-1.6-1-2.1Z"
    fill="#FFFFFF"
    opacity="0.98"
  />
</svg>
