<?xml version="1.0" encoding="UTF-8"?>
<svg width="64" height="64" viewBox="0 0 64 64" fill="none" xmlns="http://www.w3.org/2000/svg">
  <title>FPND</title>
  <!-- Outline mark works on light/dark backgrounds -->
  <rect x="10" y="10" width="44" height="44" rx="12" fill="none" stroke="#FF9100" stroke-width="4"/>
  <circle cx="44" cy="20" r="5" fill="#FFC400"/>
  <path
    d="M32 48c2.9 0 5.2-2 5.6-4.7H26.4C26.8 46 29.1 48 32 48Zm12.6-9.1c-2.8-2.3-4.6-4.8-4.6-12 0-6.5-4-11.2-9.6-12.7V12a2.3 2.3 0 1 0-4.6 0v2.2c-5.6 1.5-9.6 6.2-9.6 12.7 0 7.2-1.8 9.7-4.6 12-.6.5-.9 1.2-.9 2 0 1.4 1.1 2.5 2.5 2.5h37.2c1.4 0 2.5-1.1 2.5-2.5 0-.8-.3-1.5-.8-2Z"
    fill="#FF9100"
  />
</svg>
